<svg width="103" height="24" viewBox="0 0 103 24" fill="none" xmlns="http://www.w3.org/2000/svg">
<path d="M101.157 5.79787C101.5 5.79787 101.826 5.79787 102.17 5.79787C103.079 5.79787 103.148 5.92086 102.822 6.74662C102.273 8.11702 101.741 9.46986 101.191 10.8403C99.9559 13.8973 98.7375 16.9719 97.5019 20.029C97.2102 20.7318 96.9013 21.417 96.4723 22.0495C95.5971 23.332 94.4473 24.0172 92.8685 23.9997C91.9761 23.9821 91.1181 23.8415 90.2944 23.5077C89.7624 23.2969 89.5393 23.1563 89.8653 22.5239C90.0026 22.2603 90.0713 21.9968 90.1914 21.7332C90.5003 21.0305 90.5346 21.0305 91.2382 21.2764C91.5471 21.3994 91.8731 21.5048 92.1992 21.5575C93.2289 21.7157 94.0011 21.3467 94.5502 20.4155C94.9106 19.8182 95.0136 19.2911 94.6875 18.5883C92.9371 14.7758 91.2382 10.9457 89.505 7.13314C89.402 6.88717 89.2819 6.65876 89.1961 6.41279C89.0588 6.04384 89.1617 5.85058 89.5393 5.81544C89.8653 5.7803 90.2085 5.81544 90.5518 5.81544C92.0791 5.81544 91.753 5.65732 92.3365 7.01015C93.5034 9.71583 94.6704 12.4391 95.8373 15.1447L96.0776 15.6543C96.0776 15.6543 96.1462 15.8124 96.2492 15.8124C96.3521 15.8124 96.4894 15.8299 96.5924 15.6367C96.6267 15.5664 96.6782 15.4434 96.7297 15.338C96.7468 15.2853 96.7468 15.2502 96.764 15.215C97.8795 12.3337 98.9606 9.43472 100.059 6.55335C100.368 5.79787 100.368 5.81544 101.157 5.79787ZM82.2631 11.1565C83.1898 11.4903 84.1508 11.7012 85.0603 12.0877C85.7811 12.4039 86.4503 12.7729 86.9995 13.3527C88.338 14.7582 88.0978 17.3585 86.6734 18.6937C85.7811 19.5195 84.7171 19.9412 83.5158 20.029C81.5766 20.152 79.7748 19.6952 78.1101 18.6586C76.9432 17.9383 76.9261 17.868 77.6983 16.7787C78.2303 16.0408 78.1616 15.7245 79.2599 16.48C80.5127 17.3409 81.9027 17.7626 83.4472 17.622C84.0135 17.5693 84.5111 17.3936 84.9058 16.9719C85.558 16.2692 85.4722 15.3556 84.6999 14.7934C84.1679 14.4068 83.533 14.2311 82.9152 14.0379C82.3489 13.8446 81.7826 13.7041 81.1991 13.5284C80.5985 13.3351 80.0493 13.0716 79.5002 12.7729C77.2006 11.4728 77.3207 8.60896 78.7108 7.098C79.5688 6.16683 80.6328 5.69245 81.8684 5.62218C82.1258 5.60461 82.3832 5.62218 82.6406 5.62218C84.2366 5.56947 85.6952 6.07898 87.0681 6.85203C87.6344 7.16827 87.6687 7.34397 87.3427 7.92376C87.1711 8.24 86.9652 8.55625 86.7764 8.8725C86.6048 9.17118 86.3474 9.22389 86.0385 9.08333C85.8669 9.01305 85.7124 8.90764 85.558 8.81979C84.6656 8.31028 83.7046 8.0116 82.6921 7.92376C82.1086 7.87105 81.508 7.99404 80.976 8.32785C80.0836 8.89007 80.0665 9.90909 80.9074 10.524C81.3364 10.8227 81.7997 10.9984 82.2631 11.1565ZM70.0789 11.5255C69.7185 11.912 69.7185 11.9471 70.0445 12.3864C71.6405 14.5298 73.2365 16.6557 74.8324 18.7992C75.004 19.0451 75.3472 19.256 75.1756 19.6073C75.0212 19.9587 74.6437 19.8709 74.3519 19.8709C73.9401 19.8709 73.5282 19.8533 73.1163 19.8709C72.653 19.906 72.3441 19.7303 72.0695 19.3614C70.9712 17.868 69.8386 16.3922 68.7232 14.9163C67.8136 13.7216 67.9509 13.7919 67.2473 14.4595C66.7668 14.9339 66.1834 15.5664 65.9603 15.8827C65.8745 16.0583 65.7887 16.2165 65.7372 16.4097C65.617 16.9017 65.6514 17.4288 65.6514 17.4288V18.0964C65.6685 18.3775 65.6685 18.6586 65.6514 18.9397C65.6514 19.0276 65.6514 19.1154 65.6342 19.2033C65.617 19.7128 65.4626 19.8533 64.9821 19.8885C64.5187 19.906 64.0554 19.906 63.5921 19.8885C63.0772 19.8709 62.9914 19.7655 62.9743 19.2033C62.9571 17.868 62.9743 16.5151 62.9743 15.1799C62.9743 13.4757 62.9743 11.7539 62.9743 10.0496C62.9743 7.18585 62.9743 4.32205 62.9743 1.45825C62.9743 1.24742 62.9743 1.03659 62.9743 0.825757C62.9743 0.49194 63.1459 0.333817 63.4376 0.316248C63.9868 0.298679 64.5187 0.281109 65.0679 0.316248C65.4454 0.333817 65.5999 0.509509 65.6342 0.913603C65.6514 1.0893 65.6342 1.28256 65.6342 1.45825C65.6342 4.84913 65.6342 8.24 65.6342 11.6309V12.2809C65.6685 12.3337 65.72 12.3688 65.7887 12.4039C66.0289 12.4918 66.2005 12.1404 66.3721 11.9471C68.1569 10.0496 69.9587 8.15216 71.7263 6.2371C72.018 5.92085 72.3098 5.76273 72.7388 5.79787C73.3051 5.83301 73.8714 5.81544 74.4549 5.79787C74.6951 5.79787 74.9354 5.81544 75.0384 6.07898C75.1413 6.34252 74.9182 6.4655 74.7809 6.60606C73.7856 7.64265 72.7903 8.67924 71.795 9.69826C71.2286 10.3132 70.6623 10.9105 70.0789 11.5255ZM46.0365 12.8256C46.0365 8.9252 48.8852 5.53433 53.2269 5.53433C57.7574 5.53433 60.5203 9.27659 60.3658 12.8607C60.4688 16.3043 57.929 20.1344 53.1926 20.152C48.8337 20.152 46.0365 16.7787 46.0365 12.8256ZM57.6887 12.8959C57.8089 10.5767 55.9212 7.76563 52.8665 8.0116C51.322 8.13459 50.1723 8.8725 49.4 10.1902C48.7136 11.3849 48.5248 12.7026 48.868 14.073C49.6403 17.1828 52.815 18.4829 55.3034 17.1125C56.9508 16.2165 57.6201 14.7231 57.6887 12.8959ZM29.3733 12.8256C29.3733 9.17118 32.0676 5.51676 36.5637 5.51676C41.0255 5.51676 43.7884 9.08333 43.7198 12.8256C43.7369 16.6557 40.9569 20.1696 36.4607 20.1344C32.0161 20.1169 29.3733 16.5327 29.3733 12.8256ZM39.8586 16.1638C41.2829 14.4947 41.4546 11.9998 40.3048 10.1375C39.4467 8.74951 38.2112 7.99403 36.3406 8.0116C35.4311 7.95889 34.4529 8.36299 33.5949 9.13604C31.7243 10.8403 31.5356 14.0554 33.2345 16.0759C35.1222 18.3072 38.2455 18.0612 39.8586 16.1638ZM17.0347 6.13169C18.0815 5.49919 19.2484 5.16538 20.4325 5.21808C22.938 5.3235 24.9286 6.48307 26.25 8.71437C27.0223 10.0321 27.2968 11.4728 27.2797 13.0189C27.2625 14.7406 26.782 16.2867 25.6837 17.6044C24.3109 19.256 22.5433 20.0641 20.4153 20.2398C17.2749 20.5034 14.7351 19.2033 12.3326 17.376C11.1485 16.48 9.96438 15.6015 8.71164 14.7934C8.16249 14.442 7.57902 14.1609 6.94407 14.0027C5.53688 13.6162 4.16401 14.1784 3.40893 15.4434C3.34029 15.5488 3.27164 15.6718 3.22016 15.7948C3.06571 16.1462 2.8083 16.3043 2.4136 16.2867C1.84729 16.2692 1.28098 16.2867 0.697515 16.2867C0.0282418 16.2692 -0.143367 16.0232 0.114046 15.3907C1.00641 13.2648 2.58521 11.912 4.79896 11.4025C6.85826 10.9281 8.74596 11.3498 10.4449 12.6148C11.4402 13.3702 12.4184 14.1433 13.4309 14.8812C14.8037 15.8651 16.2109 16.8314 17.8584 17.2882C19.5916 17.7801 21.2905 17.7099 22.8179 16.5854C23.7102 15.9178 24.3109 15.0569 24.4825 13.9325C24.7056 12.4391 24.5511 10.9984 23.6244 9.7334C21.874 7.34397 18.4762 7.46696 16.8802 9.97937C16.434 10.6997 16.1423 11.4728 16.1938 12.3512C16.2109 12.7202 16.2109 13.0891 16.1766 13.4581C16.1423 13.8798 15.8849 14.0554 15.5417 13.8622C14.9067 13.5284 14.3061 13.1067 13.7398 12.6499C13.448 12.4215 13.4995 12.0877 13.4995 11.7714C13.4995 9.96179 13.4995 8.13459 13.4995 6.32495C13.4995 4.51531 13.4995 2.6881 13.4995 0.878465C13.4995 0.052708 13.551 0 14.3919 0C14.6493 0 14.9067 0 15.1641 0C16.0393 0.0175693 16.1766 0.140553 16.1766 1.07173C16.1766 2.28401 16.1766 3.49629 16.1766 4.70857C16.1766 5.02482 16.1766 5.34107 16.1766 5.65732C16.2281 6.60606 16.2281 6.60606 17.0347 6.13169Z" fill="#6BBCEC"/>
</svg>
